<svg xmlns="http://www.w3.org/2000/svg" width="1366" height="768" viewBox="0 0 1366 768">
  <defs>
    <style>
      .cls-1 {
        fill: #eee;
        fill-rule: evenodd;
      }
    </style>
  </defs>
  <g id="Artboard_1" data-name="Artboard 1">
    <path id="Rectangle_1_copy_6" data-name="Rectangle 1 copy 6" class="cls-1" d="M77.357,882.207l153.286-88.5a37,37,0,1,1,37,64.086l-153.286,88.5A37,37,0,1,1,77.357,882.207Zm160.08,179.523,260.3-150.311a62.841,62.841,0,0,1,62.83,108.851l-260.3,150.31A62.841,62.841,0,0,1,237.437,1061.73ZM77.357,1305.21l153.286-88.5a37,37,0,1,1,37,64.08l-153.286,88.5A37,37,0,1,1,77.357,1305.21Zm681,82,153.286-88.5a37,37,0,1,1,37,64.08l-153.286,88.5A37,37,0,1,1,758.357,1387.21Zm166.021-325.23L1175.91,917.114a60.6,60.6,0,1,1,60.71,104.906L985.092,1166.89A60.606,60.606,0,1,1,924.378,1061.98Zm287.982,163.23,153.28-88.5a37,37,0,1,1,37,64.08l-153.28,88.5A37,37,0,1,1,1212.36,1225.21Zm-969.9,250.92,252.2-145.95a60.984,60.984,0,0,1,60.876,105.69l-252.2,145.95A60.984,60.984,0,0,1,242.46,1476.13Z" transform="translate(-7 -738)"/>
  </g>
</svg>
